<?xml version="1.0" standalone="no"?>
<!DOCTYPE svg PUBLIC "-//W3C//DTD SVG 20010904//EN"
 "http://www.w3.org/TR/2001/REC-SVG-20010904/DTD/svg10.dtd">
<svg version="1.0" xmlns="http://www.w3.org/2000/svg"
 width="145.000000pt" height="162.000000pt" viewBox="0 0 145.000000 162.000000"
 preserveAspectRatio="xMidYMid meet">

<g transform="translate(0.000000,162.000000) scale(0.100000,-0.100000)"
fill="#000000" stroke="none">
<path d="M220 1024 l0 -396 77 70 c43 39 112 105 153 147 41 42 123 122 182
177 l108 100 182 -178 c101 -98 216 -210 256 -248 l72 -70 0 397 0 397 -515 0
-515 0 0 -396z m240 129 l0 -188 -72 -72 c-40 -40 -76 -73 -80 -73 -5 0 -8
117 -8 260 l0 260 80 0 80 0 0 -187z m240 114 l0 -73 -80 -73 -80 -72 0 145 0
146 80 0 80 0 0 -73z m240 -79 l0 -153 -80 80 -80 80 0 72 0 73 80 0 80 0 0
-152z m230 -109 l0 -261 -71 63 c-39 35 -75 71 -80 81 -5 9 -9 98 -9 197 l0
181 80 0 80 0 0 -261z"/>
<path d="M1444 945 c0 -143 2 -200 3 -127 2 73 2 190 0 260 -1 70 -3 10 -3
-133z"/>
<path d="M637 898 c-6 -23 -13 -28 -40 -28 l-32 0 24 -19 c19 -15 22 -24 17
-46 -7 -28 -7 -28 17 -12 22 14 26 14 47 0 22 -16 23 -16 16 11 -5 21 -2 31
16 46 l23 19 -31 1 c-24 0 -32 6 -40 28 l-10 27 -7 -27z"/>
<path d="M816 895 c-5 -20 -13 -25 -38 -25 l-31 0 26 -20 c22 -18 25 -25 16
-47 l-10 -26 27 17 c23 16 27 16 43 2 25 -23 32 -20 20 10 -5 15 -8 28 -7 29
2 1 14 9 28 18 l24 17 -32 0 c-25 0 -35 5 -42 25 -5 14 -11 25 -14 25 -2 0 -7
-11 -10 -25z"/>
<path d="M911 725 c-1 -27 -20 -45 -45 -45 -18 0 -18 -1 -1 -20 12 -13 15 -27
11 -45 -6 -25 -6 -26 18 -10 23 15 27 15 51 -1 l26 -17 -11 29 c-10 25 -8 30
12 46 l23 18 -27 0 c-22 0 -31 7 -42 33 -11 24 -15 27 -15 12z"/>
<path d="M546 705 c-5 -19 -13 -25 -33 -25 -25 0 -26 -1 -8 -20 12 -13 15 -27
11 -45 -6 -25 -6 -26 18 -10 23 15 27 15 51 -1 l26 -17 -11 29 c-10 25 -8 30
12 46 l23 18 -28 0 c-20 0 -30 7 -37 25 -5 14 -11 25 -14 25 -2 0 -7 -11 -10
-25z"/>
<path d="M725 708 c-6 -13 -20 -24 -33 -26 -22 -3 -23 -5 -7 -22 12 -13 15
-28 11 -45 -6 -25 -6 -26 18 -10 23 15 27 15 51 -1 l26 -17 -11 29 c-10 25 -8
30 12 46 l23 18 -28 0 c-20 0 -30 7 -37 25 -12 31 -13 31 -25 3z"/>
<path d="M230 492 c0 -44 37 -141 76 -200 54 -82 121 -140 214 -185 l85 -42
130 0 130 0 87 42 c102 50 188 130 235 219 28 54 38 83 57 167 l6 27 -510 0
-510 0 0 -28z m920 -62 c0 -28 -58 -119 -104 -166 -174 -174 -451 -173 -622 2
-42 43 -104 143 -104 168 0 3 187 6 415 6 279 0 415 -3 415 -10z"/>
</g>
</svg>
